<svg width="30" height="30" viewBox="0 0 30 30" fill="none" xmlns="http://www.w3.org/2000/svg">
<circle cx="15" cy="15" r="14.5" stroke="black"/>
<path d="M17.1441 10.9221C16.699 10.9221 16.2716 11.0968 15.9539 11.4086C15.6363 11.7205 15.4537 12.1445 15.4456 12.5896L15.4292 13.5121C15.4282 13.5616 15.4168 13.6104 15.3957 13.6552C15.3745 13.7 15.3442 13.7398 15.3066 13.7721C15.269 13.8043 15.225 13.8282 15.1774 13.8423C15.1299 13.8563 15.08 13.8602 15.0309 13.8536L14.1166 13.7294C12.9136 13.5654 11.761 13.0113 10.6552 12.09C10.3049 14.0287 10.989 15.3717 12.6366 16.4078L13.6598 17.0509C13.7084 17.0814 13.7488 17.1234 13.7774 17.1732C13.8061 17.223 13.8221 17.279 13.824 17.3364C13.826 17.3938 13.8139 17.4508 13.7887 17.5024C13.7635 17.554 13.7261 17.5987 13.6797 17.6325L12.7473 18.3136C13.3019 18.3482 13.8285 18.3236 14.2654 18.2369C17.0287 17.6852 18.866 15.606 18.866 12.1761C18.866 11.8962 18.2733 10.9221 17.1441 10.9221ZM14.2742 12.568C14.2844 12.0034 14.461 11.4543 14.7817 10.9896C15.1025 10.5249 15.5532 10.1651 16.0775 9.95538C16.6018 9.74561 17.1763 9.69516 17.7291 9.81035C18.2819 9.92553 18.7884 10.2012 19.1853 10.6029C19.6017 10.6 19.956 10.7054 20.7485 10.2252C20.5523 11.1857 20.4556 11.6027 20.0374 12.1761C20.0374 16.652 17.2864 18.8285 14.495 19.3855C12.5809 19.7673 9.79772 19.14 9 18.3072C9.40647 18.2756 11.0581 18.0981 12.0128 17.3994C11.2051 16.867 7.99026 14.9752 10.1029 9.88898C11.0944 11.0469 12.1001 11.8352 13.1192 12.2534C13.7974 12.5316 13.9638 12.5258 14.2748 12.5685L14.2742 12.568Z" fill="black"/>
</svg>
